<svg id="logoipsum-331" xmlns="http://www.w3.org/2000/svg" width="85.817" height="66.692" viewBox="0 0 85.817 66.692">
  <path id="Pfad_12" data-name="Pfad 12" d="M76.292,55.861a1.817,1.817,0,0,1,1.848,1.992v2.09h-.8V57.983c0-.721-.355-1.353-1.1-1.353-.721,0-1.085.607-1.085,1.337v1.976h-.8V57.966c0-.728-.364-1.336-1.1-1.336s-1.077.631-1.077,1.353v1.961h-.8V57.861a1.805,1.805,0,0,1,1.822-2,1.548,1.548,0,0,1,1.571,1.022,1.544,1.544,0,0,1,1.531-1.02Zm-7.747,3.4c.736,0,1.142-.641,1.142-1.377V55.974h.8v2.009a1.94,1.94,0,1,1-3.873-.008v-2h.8v1.921C67.419,58.622,67.817,59.263,68.546,59.263Zm-4.191.769a1.691,1.691,0,0,1-1.614-.882l.616-.34a.973.973,0,0,0,.965.542c.454,0,.8-.187.8-.535,0-.835-2.276-.2-2.276-1.718a1.318,1.318,0,0,1,1.483-1.207,1.607,1.607,0,0,1,1.49.8l-.615.349a.874.874,0,0,0-.859-.471c-.372,0-.7.194-.7.51,0,.812,2.276.22,2.276,1.718,0,.753-.728,1.231-1.571,1.231Zm-5.507,1.734h-.8V57.95a2.053,2.053,0,0,1,2.115-2.075,2.075,2.075,0,0,1,2.106,2.075,2.017,2.017,0,0,1-2.075,2.09,1.831,1.831,0,0,1-1.344-.591v2.317Zm1.312-2.479a1.324,1.324,0,1,0-1.312-1.329A1.313,1.313,0,0,0,60.16,59.287ZM56.18,55.974h.8v3.97h-.8ZM67,52.351A10.436,10.436,0,1,1,77.8,41.9,10.551,10.551,0,0,1,67,52.351Zm0-6.639a3.791,3.791,0,1,0-3.732-3.772A3.666,3.666,0,0,0,67,45.712ZM42.844,61.386c-4.871,0-8.408-2.16-10.214-6.01l5.854-3.142a4.374,4.374,0,0,0,4.243,2.71c2.553,0,4.243-1.611,4.439-4.439a6.888,6.888,0,0,1-4.675,1.453,9.775,9.775,0,0,1-9.861-10.1,10.48,10.48,0,0,1,10.8-10.331c6.285,0,10.8,4.36,10.8,10.37v7.778c0,7.071-4.911,11.707-11.392,11.707Zm.471-16.067A3.539,3.539,0,0,0,47.047,41.7a3.5,3.5,0,0,0-3.732-3.535A3.521,3.521,0,0,0,39.584,41.7a3.562,3.562,0,0,0,3.731,3.615ZM20.636,52.351a10.436,10.436,0,1,1,0-20.859,10.436,10.436,0,1,1,0,20.859Zm0-6.639A3.791,3.791,0,1,0,16.9,41.94a3.666,3.666,0,0,0,3.732,3.772ZM0,23.085H7.071V51.761H0ZM85.817,33.9a2.426,2.426,0,1,1-2.426-2.426A2.426,2.426,0,0,1,85.817,33.9Z" transform="translate(0 4.925)" fill="#fff"/>
  <path id="Pfad_13" data-name="Pfad 13" d="M66.242,11.726A40.037,40.037,0,0,1,77.909,37.841a14.4,14.4,0,0,0-7.96-4.732A32.758,32.758,0,0,0,9.165,24.368H1.086A40.037,40.037,0,0,1,66.242,11.726ZM10.479,36.58ZM19.684,32.792ZM31.8,38.148ZM42.336,32.838ZM55.052,38.563ZM65.863,32.8Z" transform="translate(0.232 0.002)" fill="#ffd43e" fill-rule="evenodd"/>
  <path id="Pfad_14" data-name="Pfad 14" d="M59.674,15.594A32.759,32.759,0,0,1,68.529,31.83a15.211,15.211,0,0,0-3.181-.335A14.992,14.992,0,0,0,61.1,32.1a25.477,25.477,0,0,0-49.512,1.344A14.316,14.316,0,0,0,9.059,35.3V23.089H7.744a32.758,32.758,0,0,1,51.93-7.494ZM30.379,36.869a14.412,14.412,0,0,0-8.837-5.159A14.416,14.416,0,0,1,30.379,36.869Z" transform="translate(1.651 1.282)" fill="#ee8e1d" fill-rule="evenodd"/>
  <path id="Pfad_15" data-name="Pfad 15" d="M52.408,33.637a18.2,18.2,0,0,0-34.715-4.678A14.485,14.485,0,0,1,28.258,34.31a14.565,14.565,0,0,1,11.4-5.333,14.369,14.369,0,0,1,11.85,5.748Q51.931,34.159,52.408,33.637Z" transform="translate(3.773 3.84)" fill="#971c1c"/>
  <path id="Pfad_16" data-name="Pfad 16" d="M60.427,30.822a14.377,14.377,0,0,0-6.576,4.095,18.2,18.2,0,0,0-34.713-4.678q-.415-.022-.83-.022a14.779,14.779,0,0,0-7.392,1.95,25.478,25.478,0,0,1,49.512-1.344Z" transform="translate(2.328 2.561)" fill="#d62727" fill-rule="evenodd"/>
</svg>
