<svg xmlns="http://www.w3.org/2000/svg" width="68" height="46.252" viewBox="0 0 68 46.252">
  <g id="X-SIGNAGE_Logo" data-name="X-SIGNAGE Logo" transform="translate(-99.333 -167.333)">
    <g id="Gruppe_1" data-name="Gruppe 1" transform="translate(99.333 167.333)">
      <path id="Pfad_1" data-name="Pfad 1" d="M156.91,319.993h15.3l-8-5.921Z" transform="translate(-146.862 -288.466)" fill="#47aed4"/>
      <path id="Pfad_2" data-name="Pfad 2" d="M99.333,167.333v31.528h2.551l11.914-8.052L99.654,179.8l16.155,9.581L138.146,174.8l-19.523,16.561,12.3,7.5h36.35V167.333Z" transform="translate(-99.333 -167.333)" fill="#47aed4"/>
    </g>
    <g id="Gruppe_2" data-name="Gruppe 2" transform="translate(99.392 204.739)">
      <path id="Pfad_3" data-name="Pfad 3" d="M99.667,389.51l.837-1.3a4.438,4.438,0,0,0,2.382.772,2.431,2.431,0,0,0,1.171-.236.76.76,0,0,0,.425-.707.794.794,0,0,0-.138-.478,1.346,1.346,0,0,0-.484-.366q-.347-.177-1.04-.452l-.3-.118a9.531,9.531,0,0,1-1.348-.628,2.375,2.375,0,0,1-.811-.772,2.173,2.173,0,0,1-.3-1.191,1.958,1.958,0,0,1,.458-1.328,2.674,2.674,0,0,1,1.178-.779,4.66,4.66,0,0,1,1.531-.249,5.09,5.09,0,0,1,1.511.242,5.741,5.741,0,0,1,1.485.713l-.845,1.282a6.119,6.119,0,0,0-1.105-.55,3.1,3.1,0,0,0-1.04-.17,1.729,1.729,0,0,0-.943.209.643.643,0,0,0-.318.563.655.655,0,0,0,.13.4,1.357,1.357,0,0,0,.468.353,8.852,8.852,0,0,0,.976.412l.286.1a11.7,11.7,0,0,1,1.346.589,2.44,2.44,0,0,1,.865.785,2.59,2.59,0,0,1-.094,2.754,2.655,2.655,0,0,1-1.21.87,4.9,4.9,0,0,1-1.734.288A5.438,5.438,0,0,1,99.667,389.51Z" transform="translate(-99.667 -381.685)" fill="#47aed4"/>
      <path id="Pfad_4" data-name="Pfad 4" d="M161.306,391.214v-8.48h1.806v8.48Z" transform="translate(-150.549 -382.551)" fill="#47aed4"/>
      <path id="Pfad_5" data-name="Pfad 5" d="M202.154,385.467v4.24a7.836,7.836,0,0,1-1.642.635,6.472,6.472,0,0,1-1.564.19,3.859,3.859,0,0,1-3.128-1.184,4.817,4.817,0,0,1-.994-3.2,5.149,5.149,0,0,1,.563-2.545,3.423,3.423,0,0,1,1.518-1.459,4.963,4.963,0,0,1,2.172-.458,5.713,5.713,0,0,1,1.531.2,4.93,4.93,0,0,1,1.348.6L201.2,383.8a3.957,3.957,0,0,0-2.033-.589,2.216,2.216,0,0,0-1.824.74,3.263,3.263,0,0,0-.6,2.113,3.448,3.448,0,0,0,.566,2.165,2.151,2.151,0,0,0,1.793.713,3.553,3.553,0,0,0,1.253-.209v-1.767h-1.806l.206-1.5Z" transform="translate(-178.22 -381.685)" fill="#47aed4"/>
      <path id="Pfad_6" data-name="Pfad 6" d="M268.488,382.734v8.48h-2.015l-2.666-3.952q-.342-.523-.578-.909a8.459,8.459,0,0,1-.46-.87v5.732h-1.806v-8.48h1.989l2.9,4.345.236.36q.184.282.335.53a4.355,4.355,0,0,1,.256.484v-5.719Z" transform="translate(-232.816 -382.551)" fill="#47aed4"/>
      <path id="Pfad_7" data-name="Pfad 7" d="M330.666,382.734l3.049,8.375v.1h-1.976l-.68-2.028h-3.141l-.667,2.028H325.3v-.1l3.049-8.375Zm-2.251,4.96h2.146l-1.086-3.233Z" transform="translate(-285.926 -382.551)" fill="#47aed4"/>
      <path id="Pfad_8" data-name="Pfad 8" d="M397.346,385.467v4.24a7.836,7.836,0,0,1-1.642.635,6.472,6.472,0,0,1-1.564.19,3.859,3.859,0,0,1-3.127-1.184,4.816,4.816,0,0,1-.995-3.2,5.147,5.147,0,0,1,.563-2.545,3.422,3.422,0,0,1,1.518-1.459,4.963,4.963,0,0,1,2.172-.458,5.714,5.714,0,0,1,1.531.2,4.931,4.931,0,0,1,1.348.6l-.761,1.321a3.957,3.957,0,0,0-2.033-.589,2.216,2.216,0,0,0-1.824.74,3.264,3.264,0,0,0-.6,2.113,3.447,3.447,0,0,0,.566,2.165,2.15,2.15,0,0,0,1.793.713,3.553,3.553,0,0,0,1.253-.209v-1.767h-1.806l.206-1.5Z" transform="translate(-339.349 -381.685)" fill="#47aed4"/>
      <path id="Pfad_9" data-name="Pfad 9" d="M457.963,389.7h3.926v1.518h-5.731v-8.48h5.666v1.5h-3.86v1.91H461.3l-.213,1.492h-3.124Z" transform="translate(-393.947 -382.551)" fill="#47aed4"/>
    </g>
  </g>
</svg>
