<?xml version="1.0" encoding="utf-8"?>
<!-- Generator: Adobe Illustrator 25.4.1, SVG Export Plug-In . SVG Version: 6.00 Build 0)  -->
<svg version="1.0" id="Ebene_1" xmlns="http://www.w3.org/2000/svg" xmlns:xlink="http://www.w3.org/1999/xlink" x="0px" y="0px"
	 viewBox="0 0 595.3 595.3" style="enable-background:new 0 0 595.3 595.3;" xml:space="preserve">
<g id="Gruppe_40" transform="translate(0 0)">
	<g style="enable-background:new    ;">
		<path style="fill:#FFFFFF;" d="M257.9,255.1v-7.9l6.9-0.8c1.7-4.4,2.9-7.9,3.4-10.5h6.9v10.5h9.4v8.7h-9.4v19.6
			c0,0.9,0.1,1.6,0.4,2c0.3,0.4,0.9,0.7,1.9,0.7c1,0,2.7-0.5,5.2-1.5l3.8,8.1c-3.4,1.9-7,2.9-10.8,2.9c-3.8,0-6.6-1-8.3-3
			c-1.7-2-2.6-4.6-2.6-7.8v-20.8H257.9z"/>
		<path style="fill:#FFFFFF;" d="M303.3,286.8c-4,0-7.2-1-9.4-3.1c-2.3-2.1-3.4-5-3.4-8.7c0-3.7,1.5-6.9,4.4-9.5
			c3-2.6,7.3-3.9,13.1-3.9h6.3v-2.9c0-2.5-1.6-3.7-4.7-3.7c-3.1,0-5.9,0.3-8.3,1v4.5h-9.1v-11.8c2.6-1,5.6-1.8,9.1-2.4
			c3.5-0.6,6.4-0.9,8.7-0.9c4.6,0,8.2,1.2,10.8,3.6c2.6,2.4,3.9,5.6,3.9,9.6v18.9h6.5v6.9c-2.3,1.2-5.1,1.8-8.6,1.8
			c-5.5,0-8.2-1.8-8.2-5.5C311,284.9,307.3,286.8,303.3,286.8z M304,277.3c3.6,0,7.1-2.2,10.2-6.5v-0.3h-6.3c-2.4,0-4.2,0.4-5.4,1.3
			c-1.2,0.8-1.7,2-1.7,3.4C300.8,276.6,301.9,277.3,304,277.3z"/>
		<path style="fill:#FFFFFF;" d="M351.9,286.9c-5,0-8.4-1.5-10.3-4.4c-1.9-2.9-2.9-7-2.9-12.1v-15.7h-6.1v-8.3h16.4v24
			c0,2.3,0.3,4.1,1,5.2c0.7,1.2,2.1,1.7,4.3,1.7c2.2,0,5.5-1.6,9.8-4.8v-17.4h-4.9v-8.7h15.2v31.3h6.5v6.9c-2.3,1.2-5.2,1.8-8.9,1.8
			s-6-1.3-7.1-4C360.1,285.4,355.8,286.9,351.9,286.9z"/>
		<path style="fill:#FFFFFF;" d="M421.6,265.9v4.2h-26.8c0.2,2.1,1,3.8,2.7,5.2c1.6,1.3,3.5,2,5.7,2c2.2,0,4-0.2,5.5-0.5
			c1.5-0.3,2.6-0.6,3.2-0.9c0.6-0.3,1.5-0.7,2.7-1.4l1.9-1l4.1,8c-4.3,3.5-9.7,5.3-16.2,5.3c-6.4,0-11.4-1.9-14.8-5.8
			c-3.4-3.9-5.1-8.8-5.1-14.8c0-6,1.7-10.9,5.1-14.8s8.1-5.8,13.9-5.8c5.9,0,10.4,1.9,13.4,5.7C420.1,255.1,421.6,260,421.6,265.9z
			 M409.2,257c-1.2-1.3-3-1.9-5.3-1.9c-2.3,0-4.2,0.6-5.7,1.9c-1.5,1.3-2.5,3-3,5h16.2C411.1,260,410.4,258.3,409.2,257z"/>
		<path style="fill:#FFFFFF;" d="M442,277.3h5.7v8.7h-22.1v-8.7h6.1v-22.2h-6.1v-8.7h14.9l1,4.2c4.9-3.3,9.2-5,12.8-5l5.6,1.2
			l-3,10.1l-3.6-1c-3.6,0-7.4,1.1-11.3,3.3V277.3z"/>
		<path style="fill:#FFFFFF;" d="M477.8,277.3h6.9v8.7h-23.3v-8.7h6.1v-22.2h-6.1v-8.7h14l1.2,3.9c5-3.1,9.5-4.7,13.5-4.7
			c5,0,8.4,1.5,10.3,4.4c1.9,2.9,2.9,6.9,2.9,12v15.7h6.5v6.9c-2.3,1.2-5,1.8-8.2,1.8c-3.2,0-5.5-0.7-6.7-2.1
			c-1.2-1.4-1.9-3.8-1.9-7V262c0-2.3-0.3-4.1-1-5.2c-0.6-1.1-2.1-1.7-4.4-1.7c-2.3,0-5.6,1.6-9.7,4.8V277.3z"/>
	</g>
	<g style="enable-background:new    ;">
		<path style="fill:#FFFFFF;" d="M270,355.5h6.1v5.2h-18.9v-5.2h6.1v-49.1h-6.1v-5.2H270v37.2l4.8-1.7l9.4-10.5h-2.9V321h14.9v5.2
			h-3.4l-12.5,13.6l12.6,16.1h6v3.3c-1.2,0.7-2.2,1.2-3.1,1.4c-0.9,0.3-2.3,0.4-4.3,0.4c-2,0-3.7-1-5.2-3l-11.4-15l-4.8,1.7V355.5z"
			/>
		<path style="fill:#FFFFFF;" d="M306.6,355.6c-3.3-3.9-5-8.8-5-14.8c0-6,1.7-10.9,5-14.8c3.3-3.9,8-5.8,14-5.8s10.7,1.9,14,5.8
			c3.3,3.9,5,8.8,5,14.8c0,6-1.7,10.9-5,14.8c-3.3,3.9-8,5.8-14,5.8S309.9,359.5,306.6,355.6z M311.6,330.3
			c-2.2,2.7-3.3,6.3-3.3,10.5c0,4.3,1.1,7.8,3.3,10.5c2.2,2.7,5.2,4.1,9,4.1c3.9,0,6.9-1.4,9-4.1c2.2-2.7,3.3-6.3,3.3-10.5
			c0-4.3-1.1-7.8-3.3-10.5c-2.2-2.7-5.2-4.1-9-4.1C316.8,326.2,313.7,327.5,311.6,330.3z M310.4,312.1c-0.8-0.7-1.2-1.6-1.2-2.7
			c0-1.1,0.4-2,1.1-2.7c0.7-0.8,1.6-1.1,2.7-1.1c1.1,0,2,0.4,2.7,1.1c0.8,0.8,1.1,1.7,1.1,2.7c0,1.1-0.4,2-1.1,2.7
			c-0.8,0.7-1.7,1.1-2.7,1.1C312,313.2,311.1,312.9,310.4,312.1z M325.4,312.1c-0.7-0.7-1.1-1.6-1.1-2.7c0-1.1,0.4-2,1.1-2.7
			c0.7-0.8,1.6-1.1,2.7-1.1c1.1,0,2,0.4,2.7,1.1c0.8,0.8,1.2,1.7,1.2,2.7c0,1.1-0.4,2-1.2,2.7c-0.8,0.7-1.7,1.1-2.7,1.1
			C327.1,313.2,326.2,312.9,325.4,312.1z"/>
		<path style="fill:#FFFFFF;" d="M356.8,355.5h6.9v5.2H344v-5.2h6.1v-29.3H344V321h11.3l1,4.2c1.8-1,3.2-1.8,4.4-2.3
			c1.1-0.6,2.7-1.1,4.8-1.7c2.1-0.6,4.1-0.9,6.1-0.9c4.5,0,7.7,1.3,9.4,4c1.7,2.7,2.6,6.4,2.6,11.2v20.4h6.5v3.3
			c-2,1.2-4.2,1.8-6.8,1.8c-2.6,0-4.3-0.4-5.2-1.3c-0.9-0.9-1.3-2.3-1.3-4.2v-20c0-3.1-0.4-5.4-1.2-6.9c-0.8-1.6-2.6-2.3-5.5-2.3
			c-2.9,0-7.3,1.6-13.2,4.8V355.5z"/>
		<path style="fill:#FFFFFF;" d="M394,326.2V321h12.8v34.5h6.9v5.2h-19.8v-5.2h6.2v-29.3H394z M403.3,314c-1.2,0-2.1-0.4-2.9-1.3
			c-0.7-0.8-1.1-1.9-1.1-3.1s0.4-2.2,1.2-3.1c0.8-0.9,1.8-1.3,3-1.3c1.2,0,2.1,0.4,2.9,1.3c0.7,0.8,1.1,1.9,1.1,3.1
			c0,1.2-0.4,2.2-1.2,3.1C405.4,313.5,404.4,314,403.3,314z"/>
		<path style="fill:#FFFFFF;" d="M451.2,358.2c2.2,1.9,3.3,4.6,3.3,7.9c0,3.4-1.8,6.2-5.3,8.6c-3.6,2.4-8.7,3.6-15.3,3.6
			c-4.8,0-8.5-1.1-11.1-3.4c-2.6-2.2-4-5.2-4-8.9c0-3.7,1.9-6.6,5.8-8.8c-3.6-1.1-5.5-3.2-5.5-6.2c0-3,1.6-5.1,4.9-6.2
			c-3-2.6-4.4-6.1-4.4-10.3c0-4.3,1.4-7.7,4.2-10.4c2.8-2.7,6.7-4,11.7-4c3.1,0,5.9,0.6,8.3,1.7h13.3v5.7h-7.4
			c1.1,2.1,1.7,4.3,1.7,6.8c0,4.1-1.4,7.5-4.2,10.2s-6.7,4-11.7,4h-6.8c-1.8,0-2.8,0.7-2.8,2.1c0,1.2,0.9,1.9,2.8,2.1l13.2,1.6
			C445.9,355.1,449.1,356.3,451.2,358.2z M427.5,362.1c-1.2,1.4-1.9,2.9-1.9,4.5c0,1.6,0.7,3,2.2,4.1c1.5,1.1,3.5,1.7,6.1,1.7
			c4.2,0,7.6-0.6,10.1-1.9c2.5-1.3,3.8-2.9,3.8-4.8c0-3-2-4.7-5.9-5.2l-9.7-1.1C430.3,359.9,428.7,360.8,427.5,362.1z M435.5,326.2
			c-2.9,0-5.1,0.8-6.7,2.4c-1.6,1.6-2.4,3.6-2.4,6c0,2.4,0.8,4.4,2.4,5.9c1.6,1.6,3.8,2.3,6.7,2.3c2.9,0,5.1-0.8,6.7-2.3
			c1.6-1.6,2.4-3.5,2.4-5.9c0-2.4-0.8-4.4-2.4-6C440.6,327,438.4,326.2,435.5,326.2z"/>
		<path style="fill:#FFFFFF;" d="M459.3,326.2V321h12.8v34.5h6.9v5.2h-19.8v-5.2h6.2v-29.3H459.3z M468.6,314
			c-1.2,0-2.1-0.4-2.9-1.3c-0.7-0.8-1.1-1.9-1.1-3.1s0.4-2.2,1.2-3.1c0.8-0.9,1.8-1.3,3-1.3c1.2,0,2.1,0.4,2.9,1.3
			c0.7,0.8,1.1,1.9,1.1,3.1c0,1.2-0.4,2.2-1.2,3.1C470.7,313.5,469.7,314,468.6,314z"/>
		<path style="fill:#FFFFFF;" d="M495.4,355.5h6.9v5.2h-19.7v-5.2h6.1v-29.3h-6.1V321h11.3l1,4.2c1.8-1,3.2-1.8,4.4-2.3
			c1.1-0.6,2.7-1.1,4.8-1.7c2.1-0.6,4.1-0.9,6.1-0.9c4.5,0,7.7,1.3,9.4,4c1.7,2.7,2.6,6.4,2.6,11.2v20.4h6.5v3.3
			c-2,1.2-4.2,1.8-6.8,1.8c-2.6,0-4.3-0.4-5.2-1.3c-0.9-0.9-1.3-2.3-1.3-4.2v-20c0-3.1-0.4-5.4-1.2-6.9c-0.8-1.6-2.6-2.3-5.5-2.3
			s-7.3,1.6-13.2,4.8V355.5z"/>
	</g>
	<g id="Gruppe_39">
		<g id="Gruppe_38">
			<path id="Pfad_12" style="fill:#FFFFFF;" d="M172.5,223.2c-20-4.4-34.6,3.5-45.7,19.4l0.2,0.5c0.3-0.3,0.6-0.5,0.9-0.8
				c7-7.2,15.9-12.2,25.6-14.4c6.5-1.4,13.2-1.2,19.6,0.5c8,1.9,13,9.9,11.1,17.9c0,0.1,0,0.1,0,0.2c-0.5,2.6-1.1,5.2-2,7.7
				c-0.9,2.8-0.8,5.9,0.4,8.7c1.2,3,2.1,6.2,2.6,9.4c0.3,2.7,0.1,5.4-0.5,8.1c-1.3,4.7-5.9,7.7-10.7,7c-0.1-2.2,1-4.3,2.9-5.5
				c3.8-2.2,3.8-3,1.3-6.5c-1.5-2.1-2.8-4.4-4.2-6.6c-1-1.5-1.1-3.4-0.2-5c1.4-2.7,1.8-5.8,1-8.8c-0.8-4-2.3-7.8-4.5-11.2l-3.8,2.4
				c-4.9,2.6-10.2,4.5-15.7,5.7c-3.1,0.9-6.1,2.1-9.1,3.4c-2.9,1.2-4.8,4.1-4.8,7.3c-0.1,2.2-0.1,4.4-0.1,6.6c0,0.6-0.1,1.1-0.3,1.7
				c-0.4-0.5-0.8-1-1.1-1.4c-1.2-1.7-2.6-3.3-4.1-4.7c-1.3-1.5-3.7-1.6-5.2-0.3c-0.7,0.6-1.1,1.4-1.2,2.3c-0.9,3.2-0.4,6.7,1.5,9.4
				c1,1.6,2.2,3.1,3.6,4.4c1.7,1.6,2.6,3.9,2.7,6.2c1.3,8.3-3.6,16.4-11.6,19.1c-4.1,1.7-8.4,2.8-12.7,4.1
				c-10.8,3.1-20.3,9.7-26.8,18.8c-3.8,5.1-6,11.3-6.5,17.7c0,0.3-0.1,0.5-0.2,0.8c-1.1-2.5-1.8-5.2-1.9-7.9
				c-0.8-9.8,3.1-19.5,10.4-26.1c2.5-2.4,5.2-4.6,7.9-6.9c0.3-0.3,0.6-0.5,1.3-1c-3.6,0.8-7.1,2.2-10.4,4.1
				c-8.6,4.7-14.3,13.3-15.5,23c-0.7,5.6,0.3,11.4,3,16.4c2.1,4.1,4.6,8.1,6.7,12.2c2.5,4.1,3.1,9,1.8,13.6
				c-0.8,2.8-2.7,5.1-5.3,6.4c0.2-0.5,0.4-0.9,0.6-1.4c2.6-4.7,1.7-10.6-2.1-14.4c-3.2-3.6-6.7-7-9.9-10.7
				c-6.4-7.7-10.2-17.3-10.7-27.3c-0.9-9.4,1.7-18.8,7.2-26.4c5.1-6.9,11.9-12.5,19.7-16c3-1.4,6-3.2,8.7-5.2c3-2.2,4.5-6,3.8-9.7
				c-0.3-3.1-2.8-5.4-5.9-5.5C78,263.5,72,268,70.7,274.5c-0.8,2.8-0.9,5.8-0.2,8.7c0.1,0.4,0.2,0.9,0.2,1.3l-0.5,0.4
				c-0.4-0.6-0.8-1.2-1.2-1.7c-7.1-8.5-6-21.2,2.6-28.3c1-0.8,2.1-1.6,3.2-2.2c5.2-3,11-5.1,17-6.1c9.9-1.5,18.7-7.1,24.3-15.4
				c5.9-8.6,15-14.5,25.3-16.5c6.7-1.5,13.6-1.4,20.2,0.5c4.2,1.4,7.9,4,10.6,7.6C172.3,222.8,172.4,223,172.5,223.2z"/>
			<path id="Pfad_13" style="fill:#FFFFFF;" d="M161.9,391.1c1.5-1.9,2.9-3.8,4.2-5.8c4-7.5,5.7-16.1,4.8-24.5
				c-0.2-2.2-0.5-4.5-0.8-6.8c2.4,2.2,4.9,4.3,7.2,6.5c2.9,2.9,5.8,5.9,8.3,9c4.6,5.5,5.8,13,3.3,19.7c-0.7,2.4-2.2,4.5-4.2,6
				c-27.6,22.1-68,17.7-90.1-9.9c-6.9-8.6-11.5-18.9-13.3-29.9c-0.5-4.2-0.7-8.4-0.8-12.5c0-0.7,0.2-1.3,0.5-1.9
				c3.3-7.9,9.3-14.2,17-17.9c5-2.6,10.4-4.6,15.6-6.8c5.7-2.3,10.7-5.9,14.7-10.6c0.1-0.2,0.3-0.3,0.4-0.5c0.1-0.1,0.3-0.2,0.4-0.2
				c0.2,2.5-0.1,5-0.8,7.4c-1.7,5.3-4.7,10.1-8.7,13.9c-3.2,3.3-6.5,6.4-9.4,9.9c-6.7,8.2-6.5,20,0.6,27.9c4.3,4.6,9.9,7.8,16.1,9
				c6.2,1.3,12.5,2.5,18.6,4c3.1,0.8,6,2,8.8,3.6C157.6,382.6,158.9,384.7,161.9,391.1z"/>
			<path id="Pfad_14" style="fill:#FFFFFF;" d="M195.3,384.5c0-6.5,0.2-12.7-0.1-18.9c-0.3-5.8-0.8-11.5-1.6-17.2
				c-0.7-6.2-5.3-11.3-11.5-12.6c-4.2-1.2-8.4-2.2-12.6-3.4c-2.2-0.6-4.3-1.6-6.6-2.5c-1,3.3-1.4,6.8-1.2,10.3
				c-0.3-0.4-0.6-0.8-0.9-1.3c-4.6-7.4-6.8-16-6.3-24.6c0.1-2.8,0.2-5.5,0.4-8.3c0.1-0.9-0.4-1.8-1.3-2.1c-2.8-1.6-5.6-3.1-8.2-4.9
				c-2.1-1.6-4-3.3-5.8-5.1c-0.5-0.6-0.9-1.3-1-2c0.9,0.8,1.7,1.7,2.6,2.4c5.3,3.8,11.3,6.3,17.7,7.3c3.1,0.6,6.4,0.9,9.6,0.9
				c2.3,0,2.7-0.8,3-3.3c0.5-3.5,1.2-6.9,1.9-10.8c16.9,8.6,29.1,24.3,33.3,42.8C211.3,349.7,207.1,369.3,195.3,384.5z"/>
			<path id="Pfad_15" style="fill:#FFFFFF;" d="M143.2,194.8l7.4-9.9l7.4,9.9c-0.6,0.4-1.1,0.9-1.6,1.5c-1.6,2.3-1.2,5.4,1.1,7.1
				c2.4,1.8,5.8,1.4,7.8-0.8c0.8-1.3,0.7-2.9-0.3-4.1c3.7-2.8,8.1-4.4,12.7-4.7c-4.6,5.4-7.9,11.7-9.8,18.5
				c-11.1-4.2-23.4-4.2-34.6,0c-1.9-6.8-5.2-13.1-9.8-18.5c4.5,0.3,8.9,1.8,12.6,4.6c-0.2,0.4-0.3,0.8-0.5,1.2
				c-0.7,1.5-0.1,3.2,1.3,4c2.6,1.6,6,1.1,7.9-1.3c1.6-2.2,1.1-5.4-1.1-7c-0.1-0.1-0.2-0.2-0.4-0.2
				C143.2,195,143.2,194.8,143.2,194.8z"/>
		</g>
	</g>
</g>
</svg>
