<svg xmlns="http://www.w3.org/2000/svg" width="176.284" height="33.357" viewBox="0 0 176.284 33.357">
  <g id="Logo-inverted_Stocard-logo-inverted" data-name="Logo-inverted/Stocard-logo-inverted" transform="translate(-43 -15.999)">
    <path id="STOCARD" d="M262.866,67.1a6.255,6.255,0,0,0-4.913-1.94,5.936,5.936,0,0,0-3.817,1,3.309,3.309,0,0,0-1.2,2.683,3,3,0,0,0,.3,1.423,2.6,2.6,0,0,0,.945.97,6.264,6.264,0,0,0,1.625.68q.982.277,2.368.579,1.436.3,2.607.668a7.539,7.539,0,0,1,1.99.92,3.886,3.886,0,0,1,1.26,1.36,4.1,4.1,0,0,1,.441,1.99,4.358,4.358,0,0,1-.466,2.066,4.151,4.151,0,0,1-1.31,1.474,6.155,6.155,0,0,1-2.015.894,10.438,10.438,0,0,1-2.607.3A10.063,10.063,0,0,1,251,79.494l.68-1.033a8.207,8.207,0,0,0,2.771,1.877,9.353,9.353,0,0,0,3.678.693,6.707,6.707,0,0,0,3.666-.857,2.881,2.881,0,0,0,1.323-2.595,2.976,2.976,0,0,0-.353-1.5,3.169,3.169,0,0,0-1.045-1.071,6.96,6.96,0,0,0-1.751-.781q-1.058-.327-2.469-.63-1.436-.3-2.532-.642a6.681,6.681,0,0,1-1.839-.857,3.439,3.439,0,0,1-1.121-1.247,3.982,3.982,0,0,1-.378-1.839,4.725,4.725,0,0,1,.466-2.141,4.524,4.524,0,0,1,1.3-1.575,5.793,5.793,0,0,1,1.99-.97,9.435,9.435,0,0,1,2.57-.327,8.687,8.687,0,0,1,3.1.516,7.314,7.314,0,0,1,2.469,1.575Zm19.5-1.814h-6.55V82.013h-1.285V65.285h-6.55V64.126h14.385Zm11.36,16.854a7.4,7.4,0,0,1-3.4-.781,8.791,8.791,0,0,1-2.645-2.041,9.124,9.124,0,0,1-1.713-2.9,9.6,9.6,0,0,1-.6-3.351A9.3,9.3,0,0,1,286,69.643a9.578,9.578,0,0,1,1.763-2.9,8.44,8.44,0,0,1,2.658-2A7.537,7.537,0,0,1,293.748,64a7.377,7.377,0,0,1,3.414.794,8.574,8.574,0,0,1,2.645,2.078,9.608,9.608,0,0,1,1.7,2.91,9.473,9.473,0,0,1-1.8,9.624,8.529,8.529,0,0,1-2.658,1.99,7.537,7.537,0,0,1-3.325.743Zm-7.079-9.069a8.614,8.614,0,0,0,.516,2.96,8,8,0,0,0,1.461,2.519,7.194,7.194,0,0,0,2.255,1.751,6.33,6.33,0,0,0,2.872.655,6.171,6.171,0,0,0,2.91-.68,7.1,7.1,0,0,0,2.217-1.8,8.542,8.542,0,0,0,1.4-8.364A8.191,8.191,0,0,0,298.8,67.59a7.287,7.287,0,0,0-2.23-1.751,6.122,6.122,0,0,0-2.822-.655,6.246,6.246,0,0,0-2.922.68,7.2,7.2,0,0,0-2.242,1.8,8.286,8.286,0,0,0-1.436,2.532,8.48,8.48,0,0,0-.5,2.872Zm19.976-.126a9.56,9.56,0,0,1,.567-3.212,8.906,8.906,0,0,1,1.65-2.859,8.51,8.51,0,0,1,2.658-2.053,7.867,7.867,0,0,1,3.59-.794,7.333,7.333,0,0,1,4.081,1.1,6.911,6.911,0,0,1,2.519,2.809l-1.058.6a6,6,0,0,0-1.121-1.562,5.894,5.894,0,0,0-1.386-1.02,6.135,6.135,0,0,0-1.549-.567,7.414,7.414,0,0,0-1.587-.176,6.371,6.371,0,0,0-3.023.693,7.145,7.145,0,0,0-2.217,1.8,7.833,7.833,0,0,0-1.373,2.507,8.832,8.832,0,0,0-.466,2.809,8.324,8.324,0,0,0,.554,3.023,8.415,8.415,0,0,0,1.512,2.532,7.343,7.343,0,0,0,2.267,1.751,6.221,6.221,0,0,0,2.822.655,7.245,7.245,0,0,0,1.663-.2,6.476,6.476,0,0,0,1.638-.63,6.657,6.657,0,0,0,1.461-1.1,5.85,5.85,0,0,0,1.134-1.575l1.108.529a5.98,5.98,0,0,1-1.234,1.789,7.745,7.745,0,0,1-1.738,1.31,8.28,8.28,0,0,1-2.028.794,8.75,8.75,0,0,1-2.1.265,7.08,7.08,0,0,1-3.363-.806,8.907,8.907,0,0,1-2.633-2.1,9.763,9.763,0,0,1-1.726-2.948,9.527,9.527,0,0,1-.617-3.363Zm26.274-8.818H334l7.558,17.887H340.2l-2.494-5.9h-8.54l-2.494,5.9h-1.386Zm4.459,10.934-3.9-9.372-3.98,9.372Zm9.218,6.953V64.126H354a4.61,4.61,0,0,1,2.091.479,5.334,5.334,0,0,1,1.65,1.272,6.068,6.068,0,0,1,1.083,1.789,5.443,5.443,0,0,1,.391,2,6.051,6.051,0,0,1-.3,1.9,5.6,5.6,0,0,1-.857,1.65,4.827,4.827,0,0,1-1.335,1.209,4.678,4.678,0,0,1-1.713.63l4.459,6.953h-1.486l-4.333-6.752h-5.794v6.752Zm1.285-7.936h6.273a3.255,3.255,0,0,0,1.562-.378,3.959,3.959,0,0,0,1.209-1,4.416,4.416,0,0,0,.768-1.411,5.106,5.106,0,0,0,.265-1.625,4.432,4.432,0,0,0-.315-1.65,4.639,4.639,0,0,0-.857-1.4,4.29,4.29,0,0,0-1.26-.97,3.368,3.368,0,0,0-1.549-.365h-6.1Zm17.356,7.936V64.126h5.946a9.139,9.139,0,0,1,3.716.705,7.482,7.482,0,0,1,2.658,1.915,8.019,8.019,0,0,1,1.587,2.834,11.122,11.122,0,0,1,.529,3.464,10.873,10.873,0,0,1-.592,3.691,7.952,7.952,0,0,1-1.7,2.822,7.586,7.586,0,0,1-2.683,1.814,9.224,9.224,0,0,1-3.514.642Zm13.151-8.969a9.709,9.709,0,0,0-.479-3.111,7,7,0,0,0-1.4-2.456,6.366,6.366,0,0,0-2.255-1.612,7.659,7.659,0,0,0-3.073-.579H366.5V80.854h4.661a7.674,7.674,0,0,0,3.111-.592,6.211,6.211,0,0,0,2.255-1.65A7.217,7.217,0,0,0,377.9,76.13a9.862,9.862,0,0,0,.466-3.086Z" transform="translate(-160.362 -37.007)" fill="#e74149" fill-rule="evenodd"/>
    <path id="Shape" d="M13.609,6.8V1.815a.453.453,0,0,0-.454-.454H1.817a.453.453,0,0,0-.454.454V8.164a.453.453,0,0,0,.454.454H22a1.589,1.589,0,0,1,1.589,1.588V22A1.589,1.589,0,0,1,22,23.586H1.591A1.589,1.589,0,0,1,0,22V12.3q0-.028,0-.056a.68.68,0,0,1,1.361,0h0v9.3a.68.68,0,0,0,.682.68h19.5a.68.68,0,0,0,.682-.68V10.659a.68.68,0,0,0-.682-.68H1.59A1.587,1.587,0,0,1,0,8.392V1.587A1.588,1.588,0,0,1,1.59,0H13.382A1.587,1.587,0,0,1,14.97,1.587V6.8a.68.68,0,0,1-1.361,0Zm3.97,10.442a1.24,1.24,0,1,0-1.242-1.24,1.241,1.241,0,0,0,1.242,1.24Z" transform="translate(43 32.678) rotate(-45)" fill="#e74149" fill-rule="evenodd"/>
  </g>
</svg>
